<?xml version="1.0" encoding="utf-8"?>
<!-- Generator: Adobe Illustrator 19.0.0, SVG Export Plug-In . SVG Version: 6.00 Build 0)  -->
<svg version="1.1" id="Layer_1" xmlns="http://www.w3.org/2000/svg" xmlns:xlink="http://www.w3.org/1999/xlink" x="0px" y="0px"
	 viewBox="0 0 500 500" style="enable-background:new 0 0 500 500;" xml:space="preserve">
<style type="text/css">
	.st0{fill:none;}
</style>
<g id="XMLID_3_">
	<g id="XMLID_18_" transform="translate(1 1)">
		<g id="XMLID_19_">
			<g id="XMLID_20_">
				<path id="XMLID_25_" d="M374,240.6c9-18.4,14.1-39,14.1-60.8c0-15.3-2.5-30-7.1-43.7c0-0.2-0.1-0.3-0.2-0.5
					c-11.5-34.1-36-62.3-67.5-78.9c-0.7-0.8-1.6-1.3-2.8-1.4c-18.5-9.2-39.4-14.4-61.4-14.4c-14.6,0-28.6,2.3-41.9,6.5
					c-0.8,0-1.6,0.3-2.3,0.7c-34.2,11.5-62.5,36.1-79.1,67.7c-1.1,0.8-1.8,2-1.8,3.7c-8.9,18.3-13.9,38.8-13.9,60.4
					c0,15.3,2.5,30,7.1,43.7c0,0.2,0.1,0.3,0.2,0.5c11.7,34.4,36.5,62.9,68.4,79.4c0.7,0.8,1.6,1.2,2.8,1.4
					c18.3,8.9,38.8,13.9,60.5,13.9c54.1,0,101.2-31.3,124.1-76.7C373.6,241.7,373.9,241.2,374,240.6z M371.9,221.7
					c-7.1-25.7-29.7-44.5-58-46.4c-1-14.4-6.7-27.5-15.7-37.9c21.2-18.5,53.5-17.8,74.3,2.1c4.2,12.7,6.4,26.2,6.4,40.2
					C378.8,194.5,376.4,208.5,371.9,221.7z M289.5,218c-0.3,0.2-0.6,0.4-0.9,0.7c-0.3,0.3-0.5,0.6-0.7,1
					c-10,9.7-23.7,15.7-38.6,15.7c-30.6,0-55.6-25-55.6-55.6c0-15.1,6.1-28.9,16-39c0.2-0.1,0.4-0.3,0.6-0.4
					c0.3-0.3,0.5-0.6,0.7-0.9c10-9.5,23.4-15.3,38.2-15.3c30.6,0,55.6,25,55.6,55.6C304.7,194.6,298.9,208,289.5,218z M365.9,123.4
					c-23.3-13.1-53.4-10.6-74.2,7.6c-10.3-9-23.4-14.8-37.7-15.8c2.3-28,25.5-49.9,54.4-50.6C333.3,77.4,353.6,98.2,365.9,123.4z
					 M292.3,57.6c-26.2,7.1-45.7,29.9-47.6,57.6c-14.3,1-27.3,6.6-37.6,15.4c-8.6-10.1-13.1-22.7-13.1-36c0-14.3,5.6-27.8,15.6-38.3
					c12.5-4,25.8-6.2,39.5-6.2C264.3,50.1,278.8,52.8,292.3,57.6z M193.4,62.8c-5.6,9.7-8.6,20.5-8.6,31.8
					c-0.4,15.7,5.4,31,15.6,42.7c-9,10.3-14.8,23.4-15.8,37.7c-27.9-2.2-50.1-25.3-51.1-53.5C146.3,96,167.5,75.2,193.4,62.8z
					 M126.6,137.5c7.4,25.7,30.3,44.9,57.9,46.8c1,14.4,6.7,27.6,15.7,37.9c-21.2,18.5-53.5,17.8-74.3-2.1
					c-4.2-12.7-6.4-26.2-6.4-40.2C119.5,165,122,150.8,126.6,137.5z M132.5,236.3c9.8,5.6,20.9,8.4,31.9,8.4
					c14.9,0,30.1-5.5,42.2-16c10.3,9,23.4,14.8,37.7,15.8c-2.2,28-25.1,50.4-53.4,51.1C165.6,282.8,144.9,261.8,132.5,236.3z
					 M207,302.4c25.7-7.3,44.8-30.3,46.6-57.9c14.5-1,27.7-6.8,38.1-15.8c8.6,10.1,13,22.7,13,35.9c0,14.4-5.3,28-15.4,38.5
					c-12.7,4.2-26.2,6.4-40.2,6.4C234.4,309.5,220.2,307,207,302.4z M305.4,296.6c5.6-9.7,8.6-20.7,8.6-32
					c0-15.6-5.7-30.8-15.8-42.4c8.9-10.2,14.6-23.3,15.6-37.5c28.5,2.2,50.6,24.8,51.1,53.4C352.1,263.5,331.1,284.2,305.4,296.6z"
					/>
				<path id="XMLID_22_" d="M249.2,138.1c-23.2,0-41.7,18.5-41.7,41.7s18.5,41.7,41.7,41.7s41.7-18.5,41.7-41.7
					S272.3,138.1,249.2,138.1z M249.2,212.2c-18.1,0-32.4-14.4-32.4-32.4s14.4-32.4,32.4-32.4s32.4,14.4,32.4,32.4
					S267.2,212.2,249.2,212.2z"/>
				<path id="XMLID_1_" d="M244.5,156.7c-10.2,0-18.5,8.3-18.5,18.5c0,2.8,1.9,4.6,4.6,4.6s4.6-1.9,4.6-4.6c0-5.1,4.2-9.3,9.3-9.3
					c2.8,0,4.6-1.9,4.6-4.6S247.3,156.7,244.5,156.7z"/>
			</g>
		</g>
	</g>
	<g id="XMLID_4_">
		<path id="XMLID_39_" class="st0" d="M249.2,436.7c8.9-31.4,19.2-62.7,31-94.1L407.5,0H96.4L219,342.5
			C231,376,241.1,407.4,249.2,436.7z"/>
		<path id="XMLID_38_" d="M280.2,342.5c-11.8,31.4-22.1,62.7-31,94.1c-8.1-29.3-18.2-60.6-30.2-94.1L96.4,0H16.3L210,499.8h78
			L483.7,0h-76.2L280.2,342.5z"/>
	</g>
</g>
</svg>
